PathFileType	4	(X/Y/Z)	C:/Users/beibeiliu/ov580/test_trc/User2\sequence.25_training_dense_right.trc
DataRate	CameraRate	NumFrames	NumMarkers	Units	OrigDataRate	OrigDataStartFrame	OrigNumFrames
120	120	12	19	mm	120	171	272
Frame#	Time	ThumbCMC			ThumbMCP			ThumbIP			ThumbTip			IndexMCP			IndexPIP			IndexTip			MiddleMCP			MiddlePIP			MiddleTip			RingMCP			RingPIP			RingTip			PinkyMCP			PinkyPIP			PinkyTip			BackHand1			BackHand2			BackHand3	
		X0	Y0	Z0	X1	Y1	Z1	X2	Y2	Z2	X3	Y3	Z3	X4	Y4	Z4	X5	Y5	Z5	X6	Y6	Z6	X7	Y7	Z7	X8	Y8	Z8	X9	Y9	Z9	X10	Y10	Z10	X11	Y11	Z11	X12	Y12	Z12	X13	Y13	Z13	X14	Y14	Z14	X15	Y15	Z15	X16	Y16	Z16	X17	Y17	Z17	X18	Y18	Z18	
170	1.41667	139.208	-14.6904	42.4051	127.886	-0.372885	14.0895	111.884	3.02319	-18.6826	100.066	9.11984	-33.5101	95.9897	-30.0047	-19.1227	76.1408	-4.37557	-18.1249	84.1979	11.1779	18.2916	74.2251	-39.4439	-9.9985	62.1232	-3.86398	-0.880039	83.1089	-2.17966	33.2218	60.3244	-44.9266	1.33011	48.9366	-17.7157	6.54013	75.9039	-17.2082	35.5454	53.0019	-64.1148	21.4139	34.4097	-59.6782	1.15321	16.255	-60.0565	-17.1016	97.7933	-70.5211	46.6474	117.998	-68.2505	76.1385	134.178	-54.0788	48.1903	
171	1.425	140.981	-13.6273	39.3496	125.966	-3.54592	15.8589	108.364	-0.353088	-16.3486	98.4456	7.87136	-35.6674	93.273	-28.9033	-20.5556	73.4459	-2.56312	-15.6441	83.0635	10.909	17.529	71.5067	-36.9893	-11.2352	58.3914	-5.96484	2.31182	82.8485	-2.23358	34.791	56.7803	-47.2952	4.78635	50.4599	-15.4587	9.05785	75.8099	-18.1411	37.3835	51.3891	-65.1632	20.4702	35.665	-60.4812	5.86564	16.8153	-59.0846	-16.805	100.357	-69.9834	47.1476	115.748	-69.0969	74.8377	137.834	-54.1919	44.5701	
172	1.43333	139.27	-16.1033	39.3471	125.128	-4.27074	13.4336	108.984	1.79179	-19.754	96.2245	6.45978	-38.4577	93.7729	-29.7392	-20.565	74.5745	0.0218491	-15.4881	83.8241	11.7822	18.897	73.0112	-36.5961	-11.5139	61.4467	-3.02921	1.34141	81.852	-3.0544	33.8571	55.4878	-44.7837	3.13387	46.0791	-17.6648	9.74232	75.8927	-15.8671	33.4903	50.7819	-65.6378	27.0244	31.6965	-60.783	5.70004	17.8454	-54.6011	-16.0441	98.6292	-71.0598	46.2888	117.306	-69.1044	73.4736	134.167	-57.4203	45.0549	
173	1.44167	139.903	-18.442	40.2027	124.34	-6.87826	13.8481	108.801	-0.383094	-19.5291	95.982	6.85506	-39.3167	90.0434	-29.3204	-21.9407	71.2629	-4.10401	-15.525	80.4852	7.74569	18.9916	68.6831	-39.1138	-8.76542	59.0814	-4.92608	1.18203	84.1847	-3.41425	33.9544	55.2109	-46.215	5.79648	48.6239	-16.3779	10.6017	76.5064	-17.7838	36.4502	50.7274	-65.0538	27.745	35.5123	-58.8523	7.09446	18.9136	-55.2096	-14.2665	99.3006	-70.4942	48.7521	118.658	-72.2347	75.892	136.67	-56.9966	40.5628	
174	1.45	142.318	-19.9931	38.5844	123.191	-10.0209	9.99162	108.266	-2.08843	-16.2473	96.2892	6.79115	-38.2906	87.7995	-33.0897	-21.4782	71.8003	-5.7692	-16.5575	82.7123	7.04753	18.1824	67.5428	-42.5301	-6.24864	56.7716	-9.48049	1.21849	84.5898	-0.632406	31.5131	53.2887	-47.6752	7.75651	48.5455	-14.7292	15.6671	75.4818	-18.2417	39.3748	50.4583	-64.584	27.3376	32.7307	-58.6444	9.36766	16.228	-52.1091	-12.4361	98.5837	-74.8753	48.2702	116.579	-73.285	77.8675	134.65	-59.87	42.868	
175	1.45833	141.606	-24.303	35.6246	123.257	-12.9537	8.41764	106.798	-5.83194	-20.5536	92.288	0.876424	-34.6936	85.7873	-38.6022	-18.6696	69.2853	-9.30462	-16.2449	85.5256	6.39322	14.812	67.5413	-43.313	-6.09477	58.3686	-6.07136	4.11896	81.0274	-3.76516	34.2186	49.9468	-46.7467	9.96914	48.2685	-16.1393	15.5799	74.2456	-17.0235	36.2781	46.2153	-65.3348	28.4845	30.3291	-57.7769	10.4165	12.1668	-54.9428	-4.70175	95.968	-76.8487	53.4513	118.521	-72.3316	77.1298	131.988	-65.9509	41.3732	
176	1.46667	141.17	-28.7898	34.7413	122.475	-17.8104	7.92047	102.67	-10.5565	-21.6408	85.4266	-5.3441	-34.9941	78.7839	-41.9808	-16.1299	67.4828	-11.4353	-15.3995	82.5372	4.24482	11.8151	60.5193	-44.5758	-2.51484	55.8409	-9.67574	6.19403	82.8182	-5.66436	35.3381	48.8275	-47.4618	11.0939	45.4154	-19.5049	15.3182	76.4559	-19.3644	40.1302	46.179	-66.4424	34.7414	24.9321	-60.6489	21.8501	7.18171	-54.8064	5.3937	91.8694	-77.245	51.6177	118.661	-76.3998	78.5188	129.87	-66.859	41.175	
177	1.475	142.328	-29.7631	33.173	122.019	-17.6045	6.92545	96.6002	-15.8737	-17.6385	84.2836	-4.68851	-36.9505	78.5626	-43.2759	-17.4776	63.0709	-14.1744	-9.69763	80.703	1.00877	14.5691	60.0549	-49.933	2.34005	55.5401	-10.8755	7.44054	85.9983	-7.0641	35.658	44.8103	-51.7438	19.8835	41.9321	-20.4961	21.9186	74.9618	-19.8241	40.508	44.7093	-67.282	42.1774	27.4002	-61.5152	24.0996	6.83179	-52.4187	5.37188	96.4014	-78.9589	56.2867	118.916	-78.6651	80.4511	132.106	-70.3199	41.5631	
178	1.48333	140.364	-32.383	34.7626	117.535	-21.1712	5.7397	96.5202	-14.5314	-20.2619	79.8979	-8.4043	-35.7646	78.3875	-47.4622	-13.9767	60.3559	-18.0602	-10.6949	79.9602	-0.479165	16.5981	59.0583	-50.9474	3.73305	51.1862	-15.6132	8.54997	85.2363	-10.263	36.3661	44.3068	-52.2656	18.5873	39.3201	-23.5676	25.6129	71.6254	-21.7427	42.7122	47.5586	-68.5506	42.7671	25.7925	-63.2218	26.7067	5.00048	-57.6621	12.9921	94.6244	-78.7449	55.8913	117.425	-80.264	79.5678	127.572	-70.7847	42.8693	
179	1.49167	137.939	-32.7668	31.5181	116.66	-21.3916	9.23515	94.683	-15.6571	-13.4228	75.714	-10.6514	-30.6172	70.9102	-47.7924	-12.3901	60.4956	-17.6968	-10.1539	73.3232	-4.89576	18.164	57.8804	-54.2413	4.75058	46.7792	-19.8566	13.0518	78.6736	-11.7301	38.347	42.1841	-57.4507	23.2174	40.5934	-25.6839	23.7978	72.5637	-25.3346	42.5508	44.4928	-70.7279	40.8525	25.4105	-65.9517	28.5703	2.17033	-61.3175	13.8842	94.5159	-80.7738	58.7917	119.346	-79.1669	81.7707	129.793	-71.4547	42.291	
180	1.5	135.853	-30.8373	34.9428	116.532	-18.047	10.4885	90.0955	-17.0038	-14.4927	74.5722	-8.62564	-32.8546	74.7159	-51.4899	-9.95698	55.726	-21.342	-5.86069	73.5097	-3.40737	18.8916	56.4143	-54.5706	4.35538	47.48	-21.3566	12.0853	77.0234	-14.151	39.4052	46.4374	-61.0716	19.4099	38.1938	-29.0687	26.3301	67.8721	-26.1021	42.1639	47.8805	-75.3767	43.9054	24.149	-72.3441	27.7217	2.44792	-67.6314	14.162	92.6445	-84.6938	56.417	122.099	-80.9406	81.9776	130.978	-71.1561	42.9217	
181	1.50833	133.209	-26.2665	34.32	112.844	-16.2827	9.48629	90.99	-13.0317	-13.9175	72.9088	-9.82772	-31.1433	77.8062	-48.7847	-14.3139	56.692	-21.861	-7.72993	69.7358	-6.88055	18.9164	59.73	-59.1287	2.65719	45.1814	-25.4933	11.2084	75.7686	-14.2182	36.8505	46.4347	-67.6683	18.9184	35.81	-36.5034	23.3958	67.4074	-29.1149	38.1451	47.6568	-82.0468	37.7182	27.7725	-78.0963	19.767	11.2402	-77.6626	5.48031	101.501	-82.1479	52.9996	123.107	-79.0985	76.3682	131.351	-65.3955	43.3127	
